<svg width="24" height="24" viewBox="0 0 24 24" fill="none" xmlns="http://www.w3.org/2000/svg"><path d="M3.09265 6.41183L6.09265 2.41183H18.0927L21.0927 6.41183M3.09265 6.41183V20.4118C3.09265 20.9423 3.30336 21.451 3.67844 21.826C4.05351 22.2011 4.56222 22.4118 5.09265 22.4118H19.0927C19.6231 22.4118 20.1318 22.2011 20.5069 21.826C20.8819 21.451 21.0927 20.9423 21.0927 20.4118V6.41183M3.09265 6.41183H21.0927M16.0927 10.4118C16.0927 11.4727 15.6712 12.4901 14.9211 13.2403C14.1709 13.9904 13.1535 14.4118 12.0927 14.4118C11.0318 14.4118 10.0144 13.9904 9.26422 13.2403C8.51408 12.4901 8.09265 11.4727 8.09265 10.4118" stroke="#fff" stroke-width="2" stroke-linecap="round" stroke-linejoin="round"></path></svg>